<mxfile host="app.diagrams.net" agent="Mozilla/5.0 (X11; Linux x86_64; rv:128.0) Gecko/20100101 Firefox/128.0" version="26.1.0">
  <diagram name="Page-1" id="a73Bzef70_dBo1g7pYxy">
    <mxGraphModel dx="2532" dy="914" grid="1" gridSize="10" guides="1" tooltips="1" connect="1" arrows="1" fold="1" page="1" pageScale="1" pageWidth="850" pageHeight="1100" math="0" shadow="0">
      <root>
        <mxCell id="0" />
        <mxCell id="1" parent="0" />
        <mxCell id="A1WGaWF3ZSzNQAyxAYxp-64" style="edgeStyle=orthogonalEdgeStyle;rounded=0;orthogonalLoop=1;jettySize=auto;html=1;entryX=0.5;entryY=0;entryDx=0;entryDy=0;" edge="1" parent="1" source="A1WGaWF3ZSzNQAyxAYxp-21" target="A1WGaWF3ZSzNQAyxAYxp-61">
          <mxGeometry relative="1" as="geometry" />
        </mxCell>
        <mxCell id="A1WGaWF3ZSzNQAyxAYxp-21" value="START" style="ellipse;whiteSpace=wrap;html=1;fillColor=#d5e8d4;strokeColor=#82b366;" vertex="1" parent="1">
          <mxGeometry x="380" y="100" width="105" height="50" as="geometry" />
        </mxCell>
        <mxCell id="A1WGaWF3ZSzNQAyxAYxp-26" value="MANAGEMENT TOKO BUKU" style="text;html=1;align=center;verticalAlign=middle;whiteSpace=wrap;rounded=0;fontSize=16;" vertex="1" parent="1">
          <mxGeometry x="322.5" width="220" height="70" as="geometry" />
        </mxCell>
        <mxCell id="A1WGaWF3ZSzNQAyxAYxp-61" value="Main Loop" style="swimlane;whiteSpace=wrap;html=1;" vertex="1" parent="1">
          <mxGeometry x="-139.38" y="270" width="1143.75" height="1060" as="geometry" />
        </mxCell>
        <mxCell id="A1WGaWF3ZSzNQAyxAYxp-25" value="" style="edgeStyle=orthogonalEdgeStyle;rounded=0;orthogonalLoop=1;jettySize=auto;html=1;" edge="1" parent="A1WGaWF3ZSzNQAyxAYxp-61" source="A1WGaWF3ZSzNQAyxAYxp-22" target="A1WGaWF3ZSzNQAyxAYxp-24">
          <mxGeometry relative="1" as="geometry" />
        </mxCell>
        <mxCell id="A1WGaWF3ZSzNQAyxAYxp-22" value="MENU" style="shape=parallelogram;perimeter=parallelogramPerimeter;whiteSpace=wrap;html=1;fixedSize=1;" vertex="1" parent="A1WGaWF3ZSzNQAyxAYxp-61">
          <mxGeometry x="466.25" y="120" width="120" height="60" as="geometry" />
        </mxCell>
        <mxCell id="A1WGaWF3ZSzNQAyxAYxp-31" style="edgeStyle=orthogonalEdgeStyle;rounded=0;orthogonalLoop=1;jettySize=auto;html=1;exitX=1;exitY=1;exitDx=0;exitDy=0;" edge="1" parent="A1WGaWF3ZSzNQAyxAYxp-61" source="A1WGaWF3ZSzNQAyxAYxp-24" target="A1WGaWF3ZSzNQAyxAYxp-29">
          <mxGeometry relative="1" as="geometry" />
        </mxCell>
        <mxCell id="A1WGaWF3ZSzNQAyxAYxp-44" value="" style="edgeStyle=orthogonalEdgeStyle;rounded=0;orthogonalLoop=1;jettySize=auto;html=1;" edge="1" parent="A1WGaWF3ZSzNQAyxAYxp-61" source="A1WGaWF3ZSzNQAyxAYxp-24" target="A1WGaWF3ZSzNQAyxAYxp-43">
          <mxGeometry relative="1" as="geometry" />
        </mxCell>
        <mxCell id="A1WGaWF3ZSzNQAyxAYxp-47" style="edgeStyle=orthogonalEdgeStyle;rounded=0;orthogonalLoop=1;jettySize=auto;html=1;entryX=0.5;entryY=0;entryDx=0;entryDy=0;" edge="1" parent="A1WGaWF3ZSzNQAyxAYxp-61" source="A1WGaWF3ZSzNQAyxAYxp-24" target="A1WGaWF3ZSzNQAyxAYxp-46">
          <mxGeometry relative="1" as="geometry" />
        </mxCell>
        <mxCell id="A1WGaWF3ZSzNQAyxAYxp-51" style="edgeStyle=orthogonalEdgeStyle;rounded=0;orthogonalLoop=1;jettySize=auto;html=1;entryX=1;entryY=0.5;entryDx=0;entryDy=0;" edge="1" parent="A1WGaWF3ZSzNQAyxAYxp-61" source="A1WGaWF3ZSzNQAyxAYxp-24" target="A1WGaWF3ZSzNQAyxAYxp-50">
          <mxGeometry relative="1" as="geometry" />
        </mxCell>
        <mxCell id="A1WGaWF3ZSzNQAyxAYxp-54" style="edgeStyle=orthogonalEdgeStyle;rounded=0;orthogonalLoop=1;jettySize=auto;html=1;entryX=0.5;entryY=0;entryDx=0;entryDy=0;" edge="1" parent="A1WGaWF3ZSzNQAyxAYxp-61" source="A1WGaWF3ZSzNQAyxAYxp-24" target="A1WGaWF3ZSzNQAyxAYxp-53">
          <mxGeometry relative="1" as="geometry" />
        </mxCell>
        <mxCell id="A1WGaWF3ZSzNQAyxAYxp-57" style="edgeStyle=orthogonalEdgeStyle;rounded=0;orthogonalLoop=1;jettySize=auto;html=1;entryX=0.5;entryY=0;entryDx=0;entryDy=0;" edge="1" parent="A1WGaWF3ZSzNQAyxAYxp-61" source="A1WGaWF3ZSzNQAyxAYxp-24" target="A1WGaWF3ZSzNQAyxAYxp-56">
          <mxGeometry relative="1" as="geometry" />
        </mxCell>
        <mxCell id="A1WGaWF3ZSzNQAyxAYxp-24" value="" style="rhombus;whiteSpace=wrap;html=1;" vertex="1" parent="A1WGaWF3ZSzNQAyxAYxp-61">
          <mxGeometry x="486.25" y="240" width="80" height="80" as="geometry" />
        </mxCell>
        <mxCell id="A1WGaWF3ZSzNQAyxAYxp-39" style="edgeStyle=orthogonalEdgeStyle;rounded=0;orthogonalLoop=1;jettySize=auto;html=1;" edge="1" parent="A1WGaWF3ZSzNQAyxAYxp-61" source="A1WGaWF3ZSzNQAyxAYxp-29" target="A1WGaWF3ZSzNQAyxAYxp-38">
          <mxGeometry relative="1" as="geometry" />
        </mxCell>
        <mxCell id="A1WGaWF3ZSzNQAyxAYxp-29" value="Mnambahkan buku pada stack" style="rounded=0;whiteSpace=wrap;html=1;" vertex="1" parent="A1WGaWF3ZSzNQAyxAYxp-61">
          <mxGeometry x="733.75" y="320" width="120" height="60" as="geometry" />
        </mxCell>
        <mxCell id="A1WGaWF3ZSzNQAyxAYxp-36" value="&lt;div&gt;&lt;font style=&quot;font-size: 22px;&quot;&gt;STACK&lt;/font&gt;&lt;/div&gt;&lt;div&gt;&lt;font style=&quot;font-size: 15px;&quot;&gt;riwayat transaksi&lt;font&gt;&lt;font&gt;&lt;br&gt;&lt;/font&gt;&lt;/font&gt;&lt;/font&gt;&lt;/div&gt;" style="strokeWidth=2;html=1;shape=mxgraph.flowchart.database;whiteSpace=wrap;" vertex="1" parent="A1WGaWF3ZSzNQAyxAYxp-61">
          <mxGeometry x="153.75" y="800" width="120" height="150" as="geometry" />
        </mxCell>
        <mxCell id="A1WGaWF3ZSzNQAyxAYxp-37" value="&lt;div&gt;&lt;font style=&quot;font-size: 22px;&quot;&gt;QUEUE&lt;/font&gt;&lt;/div&gt;&lt;font style=&quot;font-size: 15px;&quot;&gt;antrian pelanggan&lt;/font&gt;" style="strokeWidth=2;html=1;shape=mxgraph.flowchart.database;whiteSpace=wrap;" vertex="1" parent="A1WGaWF3ZSzNQAyxAYxp-61">
          <mxGeometry x="468.75" y="800" width="115" height="150" as="geometry" />
        </mxCell>
        <mxCell id="A1WGaWF3ZSzNQAyxAYxp-38" value="&lt;div&gt;&lt;font style=&quot;font-size: 22px;&quot;&gt;NRLL&lt;/font&gt;&lt;/div&gt;&lt;font style=&quot;font-size: 15px;&quot;&gt;Stok Buku&lt;/font&gt;" style="strokeWidth=2;html=1;shape=mxgraph.flowchart.database;whiteSpace=wrap;" vertex="1" parent="A1WGaWF3ZSzNQAyxAYxp-61">
          <mxGeometry x="733.75" y="800" width="120" height="150" as="geometry" />
        </mxCell>
        <mxCell id="A1WGaWF3ZSzNQAyxAYxp-43" value="Registrasi pelanggan baru" style="rounded=0;whiteSpace=wrap;html=1;" vertex="1" parent="A1WGaWF3ZSzNQAyxAYxp-61">
          <mxGeometry x="553.75" y="410" width="120" height="60" as="geometry" />
        </mxCell>
        <mxCell id="A1WGaWF3ZSzNQAyxAYxp-45" style="edgeStyle=orthogonalEdgeStyle;rounded=0;orthogonalLoop=1;jettySize=auto;html=1;entryX=0.5;entryY=0;entryDx=0;entryDy=0;entryPerimeter=0;" edge="1" parent="A1WGaWF3ZSzNQAyxAYxp-61" source="A1WGaWF3ZSzNQAyxAYxp-43" target="A1WGaWF3ZSzNQAyxAYxp-37">
          <mxGeometry relative="1" as="geometry" />
        </mxCell>
        <mxCell id="A1WGaWF3ZSzNQAyxAYxp-48" style="edgeStyle=orthogonalEdgeStyle;rounded=0;orthogonalLoop=1;jettySize=auto;html=1;" edge="1" parent="A1WGaWF3ZSzNQAyxAYxp-61" source="A1WGaWF3ZSzNQAyxAYxp-46" target="A1WGaWF3ZSzNQAyxAYxp-37">
          <mxGeometry relative="1" as="geometry" />
        </mxCell>
        <mxCell id="A1WGaWF3ZSzNQAyxAYxp-72" style="edgeStyle=orthogonalEdgeStyle;rounded=0;orthogonalLoop=1;jettySize=auto;html=1;" edge="1" parent="A1WGaWF3ZSzNQAyxAYxp-61" source="A1WGaWF3ZSzNQAyxAYxp-46" target="A1WGaWF3ZSzNQAyxAYxp-38">
          <mxGeometry relative="1" as="geometry">
            <Array as="points">
              <mxPoint x="426" y="690" />
              <mxPoint x="794" y="690" />
            </Array>
          </mxGeometry>
        </mxCell>
        <mxCell id="A1WGaWF3ZSzNQAyxAYxp-46" value="Memproses pelanggan" style="rounded=0;whiteSpace=wrap;html=1;" vertex="1" parent="A1WGaWF3ZSzNQAyxAYxp-61">
          <mxGeometry x="366.25" y="410" width="120" height="60" as="geometry" />
        </mxCell>
        <mxCell id="A1WGaWF3ZSzNQAyxAYxp-49" style="edgeStyle=orthogonalEdgeStyle;rounded=0;orthogonalLoop=1;jettySize=auto;html=1;entryX=0.5;entryY=0;entryDx=0;entryDy=0;entryPerimeter=0;" edge="1" parent="A1WGaWF3ZSzNQAyxAYxp-61" source="A1WGaWF3ZSzNQAyxAYxp-46" target="A1WGaWF3ZSzNQAyxAYxp-36">
          <mxGeometry relative="1" as="geometry" />
        </mxCell>
        <mxCell id="A1WGaWF3ZSzNQAyxAYxp-50" value="Menampilkan riwayat transaksi" style="shape=parallelogram;perimeter=parallelogramPerimeter;whiteSpace=wrap;html=1;fixedSize=1;" vertex="1" parent="A1WGaWF3ZSzNQAyxAYxp-61">
          <mxGeometry x="133.75" y="250" width="160" height="60" as="geometry" />
        </mxCell>
        <mxCell id="A1WGaWF3ZSzNQAyxAYxp-52" style="edgeStyle=orthogonalEdgeStyle;rounded=0;orthogonalLoop=1;jettySize=auto;html=1;entryX=0.5;entryY=0;entryDx=0;entryDy=0;entryPerimeter=0;" edge="1" parent="A1WGaWF3ZSzNQAyxAYxp-61" source="A1WGaWF3ZSzNQAyxAYxp-50" target="A1WGaWF3ZSzNQAyxAYxp-36">
          <mxGeometry relative="1" as="geometry" />
        </mxCell>
        <mxCell id="A1WGaWF3ZSzNQAyxAYxp-53" value="Menampilkan antrian" style="shape=parallelogram;perimeter=parallelogramPerimeter;whiteSpace=wrap;html=1;fixedSize=1;" vertex="1" parent="A1WGaWF3ZSzNQAyxAYxp-61">
          <mxGeometry x="446.25" y="490" width="160" height="60" as="geometry" />
        </mxCell>
        <mxCell id="A1WGaWF3ZSzNQAyxAYxp-55" style="edgeStyle=orthogonalEdgeStyle;rounded=0;orthogonalLoop=1;jettySize=auto;html=1;entryX=0.5;entryY=0;entryDx=0;entryDy=0;entryPerimeter=0;" edge="1" parent="A1WGaWF3ZSzNQAyxAYxp-61" source="A1WGaWF3ZSzNQAyxAYxp-53" target="A1WGaWF3ZSzNQAyxAYxp-37">
          <mxGeometry relative="1" as="geometry" />
        </mxCell>
        <mxCell id="A1WGaWF3ZSzNQAyxAYxp-58" style="edgeStyle=orthogonalEdgeStyle;rounded=0;orthogonalLoop=1;jettySize=auto;html=1;" edge="1" parent="A1WGaWF3ZSzNQAyxAYxp-61" source="A1WGaWF3ZSzNQAyxAYxp-56">
          <mxGeometry relative="1" as="geometry">
            <mxPoint x="793.75" y="800" as="targetPoint" />
            <Array as="points">
              <mxPoint x="993.75" y="570" />
              <mxPoint x="794.75" y="570" />
            </Array>
          </mxGeometry>
        </mxCell>
        <mxCell id="A1WGaWF3ZSzNQAyxAYxp-56" value="Menampilkan stok buku" style="shape=parallelogram;perimeter=parallelogramPerimeter;whiteSpace=wrap;html=1;fixedSize=1;" vertex="1" parent="A1WGaWF3ZSzNQAyxAYxp-61">
          <mxGeometry x="913.75" y="320" width="160" height="60" as="geometry" />
        </mxCell>
        <mxCell id="A1WGaWF3ZSzNQAyxAYxp-63" value="" style="edgeStyle=orthogonalEdgeStyle;rounded=0;orthogonalLoop=1;jettySize=auto;html=1;" edge="1" parent="A1WGaWF3ZSzNQAyxAYxp-61" source="A1WGaWF3ZSzNQAyxAYxp-62" target="A1WGaWF3ZSzNQAyxAYxp-22">
          <mxGeometry relative="1" as="geometry" />
        </mxCell>
        <mxCell id="A1WGaWF3ZSzNQAyxAYxp-62" value="START" style="ellipse;whiteSpace=wrap;html=1;fillColor=#d5e8d4;strokeColor=#82b366;" vertex="1" parent="A1WGaWF3ZSzNQAyxAYxp-61">
          <mxGeometry x="481.25" y="40" width="105" height="50" as="geometry" />
        </mxCell>
        <mxCell id="A1WGaWF3ZSzNQAyxAYxp-67" value="&lt;font style=&quot;font-size: 23px; color: rgb(0, 0, 0);&quot;&gt;+&lt;/font&gt;" style="text;html=1;align=center;verticalAlign=middle;whiteSpace=wrap;rounded=0;" vertex="1" parent="A1WGaWF3ZSzNQAyxAYxp-61">
          <mxGeometry x="306.25" y="410" width="60" height="30" as="geometry" />
        </mxCell>
        <mxCell id="A1WGaWF3ZSzNQAyxAYxp-68" value="&lt;font style=&quot;font-size: 23px; color: rgb(0, 0, 0);&quot;&gt;+&lt;/font&gt;" style="text;html=1;align=center;verticalAlign=middle;whiteSpace=wrap;rounded=0;" vertex="1" parent="A1WGaWF3ZSzNQAyxAYxp-61">
          <mxGeometry x="613.75" y="470" width="60" height="30" as="geometry" />
        </mxCell>
        <mxCell id="A1WGaWF3ZSzNQAyxAYxp-69" value="&lt;font style=&quot;font-size: 23px; color: rgb(0, 0, 0);&quot;&gt;+&lt;/font&gt;" style="text;html=1;align=center;verticalAlign=middle;whiteSpace=wrap;rounded=0;" vertex="1" parent="A1WGaWF3ZSzNQAyxAYxp-61">
          <mxGeometry x="733.75" y="380" width="60" height="30" as="geometry" />
        </mxCell>
        <mxCell id="A1WGaWF3ZSzNQAyxAYxp-70" value="&lt;font style=&quot;font-size: 28px;&quot;&gt;-&lt;/font&gt;" style="text;html=1;align=center;verticalAlign=middle;whiteSpace=wrap;rounded=0;" vertex="1" parent="A1WGaWF3ZSzNQAyxAYxp-61">
          <mxGeometry x="366.25" y="470" width="60" height="30" as="geometry" />
        </mxCell>
        <mxCell id="A1WGaWF3ZSzNQAyxAYxp-74" value="&lt;font style=&quot;font-size: 28px;&quot;&gt;-&lt;/font&gt;" style="text;html=1;align=center;verticalAlign=middle;whiteSpace=wrap;rounded=0;" vertex="1" parent="A1WGaWF3ZSzNQAyxAYxp-61">
          <mxGeometry x="366.25" y="505" width="60" height="30" as="geometry" />
        </mxCell>
        <mxCell id="A1WGaWF3ZSzNQAyxAYxp-65" value="EXIT" style="ellipse;whiteSpace=wrap;html=1;fillColor=#f8cecc;strokeColor=#b85450;" vertex="1" parent="1">
          <mxGeometry x="1060" y="525" width="105" height="50" as="geometry" />
        </mxCell>
        <mxCell id="A1WGaWF3ZSzNQAyxAYxp-66" style="edgeStyle=orthogonalEdgeStyle;rounded=0;orthogonalLoop=1;jettySize=auto;html=1;entryX=0;entryY=0.5;entryDx=0;entryDy=0;" edge="1" parent="1" source="A1WGaWF3ZSzNQAyxAYxp-24" target="A1WGaWF3ZSzNQAyxAYxp-65">
          <mxGeometry relative="1" as="geometry" />
        </mxCell>
      </root>
    </mxGraphModel>
  </diagram>
</mxfile>
